<svg xmlns="http://www.w3.org/2000/svg" viewBox="8 0 104 128" role="img" aria-label="Fiveheads favicon">
  <title>Fiveheads headstock</title>
  <g>
    <path
      id="head"
      d="M54 116V84c0-4-2-7-5-9l-2-2c-4-4-4-10 0-14l20-35c4-7 10-10 20-10 14 0 23 11 23 24 0 9-5 17-12 21l-2 1c-4 3-6 6-6 11v45z"
      fill="#171536"
      stroke="#0a0917"
      stroke-width="14"
      stroke-linecap="round"
      stroke-linejoin="round"
    />
    <use href="#head" fill="none" stroke="#ffffff" stroke-width="9" stroke-linecap="round" stroke-linejoin="round"/>
    <use href="#head" fill="none" stroke="#ff11b7" stroke-width="6" stroke-linecap="round" stroke-linejoin="round"/>

    <g stroke="#0a0917" stroke-width="2">
      <circle cx="43" cy="29" r="5.1" fill="#ff11b7"/>
      <circle cx="39" cy="39" r="5.1" fill="#ff11b7"/>
      <circle cx="36" cy="49" r="5.1" fill="#ff11b7"/>
      <circle cx="33" cy="60" r="5.1" fill="#ff11b7"/>
      <circle cx="31" cy="72" r="5.1" fill="#ff11b7"/>
      <circle cx="30" cy="84" r="5.1" fill="#ff11b7"/>
    </g>
    <g fill="#ffffff">
      <circle cx="43" cy="29" r="2.9"/>
      <circle cx="39" cy="39" r="2.9"/>
      <circle cx="36" cy="49" r="2.9"/>
      <circle cx="33" cy="60" r="2.9"/>
      <circle cx="31" cy="72" r="2.9"/>
      <circle cx="30" cy="84" r="2.9"/>
    </g>

    <g stroke="#ffffff" stroke-width="2.4" stroke-linecap="round">
      <line x1="66" y1="53" x2="66" y2="114"/>
      <line x1="70" y1="48" x2="70" y2="114"/>
      <line x1="74" y1="43" x2="74" y2="114"/>
      <line x1="78" y1="38" x2="78" y2="114"/>
      <line x1="82" y1="32" x2="82" y2="114"/>
      <line x1="86" y1="27" x2="86" y2="114"/>
      <line x1="63" y1="94" x2="91" y2="94"/>
    </g>
  </g>
</svg>
